# Tiled2Unity generated file. Do not modify by hand.
# Wavefront file for 'overworld_mesh_0002.obj'

# Vertices (Count = 608)
v 0 -1 0
v -1 -1 0
v -1 0 0
v 0 0 0
v -1 -1 0
v -2 -1 0
v -2 0 0
v -1 0 0
v -2 -1 0
v -3 -1 0
v -3 0 0
v -2 0 0
v -3 -1 0
v -4 -1 0
v -4 0 0
v -3 0 0
v -4 -1 0
v -5 -1 0
v -5 0 0
v -4 0 0
v -5 -1 0
v -6 -1 0
v -6 0 0
v -5 0 0
v -6 -1 0
v -7 -1 0
v -7 0 0
v -6 0 0
v -7 -1 0
v -8 -1 0
v -8 0 0
v -7 0 0
v -8 -1 0
v -9 -1 0
v -9 0 0
v -8 0 0
v -9 -1 0
v -10 -1 0
v -10 0 0
v -9 0 0
v -12 -1 0
v -13 -1 0
v -13 0 0
v -12 0 0
v -13 -1 0
v -14 -1 0
v -14 0 0
v -13 0 0
v -14 -1 0
v -15 -1 0
v -15 0 0
v -14 0 0
v -15 -1 0
v -16 -1 0
v -16 0 0
v -15 0 0
v -16 -1 0
v -17 -1 0
v -17 0 0
v -16 0 0
v -17 -1 0
v -18 -1 0
v -18 0 0
v -17 0 0
v -18 -1 0
v -19 -1 0
v -19 0 0
v -18 0 0
v -19 -1 0
v -20 -1 0
v -20 0 0
v -19 0 0
v -20 -1 0
v -21 -1 0
v -21 0 0
v -20 0 0
v -21 -1 0
v -22 -1 0
v -22 0 0
v -21 0 0
v -22 -1 0
v -23 -1 0
v -23 0 0
v -22 0 0
v -23 -1 0
v -24 -1 0
v -24 0 0
v -23 0 0
v -24 -1 0
v -25 -1 0
v -25 0 0
v -24 0 0
v 0 -2 0
v -1 -2 0
v -1 -1 0
v 0 -1 0
v -24 -2 0
v -25 -2 0
v -25 -1 0
v -24 -1 0
v 0 -3 0
v -1 -3 0
v -1 -2 0
v 0 -2 0
v -24 -3 0
v -25 -3 0
v -25 -2 0
v -24 -2 0
v 0 -4 0
v -1 -4 0
v -1 -3 0
v 0 -3 0
v -24 -4 0
v -25 -4 0
v -25 -3 0
v -24 -3 0
v 0 -5 0
v -1 -5 0
v -1 -4 0
v 0 -4 0
v -16 -5 0
v -17 -5 0
v -17 -4 0
v -16 -4 0
v -17 -5 0
v -18 -5 0
v -18 -4 0
v -17 -4 0
v -18 -5 0
v -19 -5 0
v -19 -4 0
v -18 -4 0
v -19 -5 0
v -20 -5 0
v -20 -4 0
v -19 -4 0
v -20 -5 0
v -21 -5 0
v -21 -4 0
v -20 -4 0
v -24 -5 0
v -25 -5 0
v -25 -4 0
v -24 -4 0
v 0 -6 0
v -1 -6 0
v -1 -5 0
v 0 -5 0
v -4 -6 0
v -5 -6 0
v -5 -5 0
v -4 -5 0
v -5 -6 0
v -6 -6 0
v -6 -5 0
v -5 -5 0
v -16 -6 0
v -17 -6 0
v -17 -5 0
v -16 -5 0
v -17 -6 0
v -18 -6 0
v -18 -5 0
v -17 -5 0
v -18 -6 0
v -19 -6 0
v -19 -5 0
v -18 -5 0
v -19 -6 0
v -20 -6 0
v -20 -5 0
v -19 -5 0
v -20 -6 0
v -21 -6 0
v -21 -5 0
v -20 -5 0
v -24 -6 0
v -25 -6 0
v -25 -5 0
v -24 -5 0
v 0 -7 0
v -1 -7 0
v -1 -6 0
v 0 -6 0
v -4 -7 0
v -5 -7 0
v -5 -6 0
v -4 -6 0
v -5 -7 0
v -6 -7 0
v -6 -6 0
v -5 -6 0
v -14 -7 0
v -15 -7 0
v -15 -6 0
v -14 -6 0
v -15 -7 0
v -16 -7 0
v -16 -6 0
v -15 -6 0
v -16 -7 0
v -17 -7 0
v -17 -6 0
v -16 -6 0
v -17 -7 0
v -18 -7 0
v -18 -6 0
v -17 -6 0
v -18 -7 0
v -19 -7 0
v -19 -6 0
v -18 -6 0
v -19 -7 0
v -20 -7 0
v -20 -6 0
v -19 -6 0
v -20 -7 0
v -21 -7 0
v -21 -6 0
v -20 -6 0
v -24 -7 0
v -25 -7 0
v -25 -6 0
v -24 -6 0
v 0 -8 0
v -1 -8 0
v -1 -7 0
v 0 -7 0
v -14 -8 0
v -15 -8 0
v -15 -7 0
v -14 -7 0
v -15 -8 0
v -16 -8 0
v -16 -7 0
v -15 -7 0
v -16 -8 0
v -17 -8 0
v -17 -7 0
v -16 -7 0
v -17 -8 0
v -18 -8 0
v -18 -7 0
v -17 -7 0
v -18 -8 0
v -19 -8 0
v -19 -7 0
v -18 -7 0
v -19 -8 0
v -20 -8 0
v -20 -7 0
v -19 -7 0
v -20 -8 0
v -21 -8 0
v -21 -7 0
v -20 -7 0
v -24 -8 0
v -25 -8 0
v -25 -7 0
v -24 -7 0
v 0 -9 0
v -1 -9 0
v -1 -8 0
v 0 -8 0
v -6 -9 0
v -7 -9 0
v -7 -8 0
v -6 -8 0
v -7 -9 0
v -8 -9 0
v -8 -8 0
v -7 -8 0
v -14 -9 0
v -15 -9 0
v -15 -8 0
v -14 -8 0
v -15 -9 0
v -16 -9 0
v -16 -8 0
v -15 -8 0
v -16 -9 0
v -17 -9 0
v -17 -8 0
v -16 -8 0
v -17 -9 0
v -18 -9 0
v -18 -8 0
v -17 -8 0
v -18 -9 0
v -19 -9 0
v -19 -8 0
v -18 -8 0
v -19 -9 0
v -20 -9 0
v -20 -8 0
v -19 -8 0
v -20 -9 0
v -21 -9 0
v -21 -8 0
v -20 -8 0
v -24 -9 0
v -25 -9 0
v -25 -8 0
v -24 -8 0
v 0 -10 0
v -1 -10 0
v -1 -9 0
v 0 -9 0
v -6 -10 0
v -7 -10 0
v -7 -9 0
v -6 -9 0
v -7 -10 0
v -8 -10 0
v -8 -9 0
v -7 -9 0
v -24 -10 0
v -25 -10 0
v -25 -9 0
v -24 -9 0
v 0 -11 0
v -1 -11 0
v -1 -10 0
v 0 -10 0
v -24 -11 0
v -25 -11 0
v -25 -10 0
v -24 -10 0
v 0 -12 0
v -1 -12 0
v -1 -11 0
v 0 -11 0
v -12 -12 0
v -13 -12 0
v -13 -11 0
v -12 -11 0
v -13 -12 0
v -14 -12 0
v -14 -11 0
v -13 -11 0
v -24 -12 0
v -25 -12 0
v -25 -11 0
v -24 -11 0
v 0 -13 0
v -1 -13 0
v -1 -12 0
v 0 -12 0
v -12 -13 0
v -13 -13 0
v -13 -12 0
v -12 -12 0
v -13 -13 0
v -14 -13 0
v -14 -12 0
v -13 -12 0
v -24 -13 0
v -25 -13 0
v -25 -12 0
v -24 -12 0
v -24 -14 0
v -25 -14 0
v -25 -13 0
v -24 -13 0
v 0 -16 0
v -1 -16 0
v -1 -15 0
v 0 -15 0
v -1 -16 0
v -2 -16 0
v -2 -15 0
v -1 -15 0
v -2 -16 0
v -3 -16 0
v -3 -15 0
v -2 -15 0
v -8 -16 0
v -9 -16 0
v -9 -15 0
v -8 -15 0
v -9 -16 0
v -10 -16 0
v -10 -15 0
v -9 -15 0
v 0 -17 0
v -1 -17 0
v -1 -16 0
v 0 -16 0
v -1 -17 0
v -2 -17 0
v -2 -16 0
v -1 -16 0
v -2 -17 0
v -3 -17 0
v -3 -16 0
v -2 -16 0
v -8 -17 0
v -9 -17 0
v -9 -16 0
v -8 -16 0
v -9 -17 0
v -10 -17 0
v -10 -16 0
v -9 -16 0
v -24 -17 0
v -25 -17 0
v -25 -16 0
v -24 -16 0
v 0 -18 0
v -1 -18 0
v -1 -17 0
v 0 -17 0
v -12 -18 0
v -13 -18 0
v -13 -17 0
v -12 -17 0
v -13 -18 0
v -14 -18 0
v -14 -17 0
v -13 -17 0
v -14 -18 0
v -15 -18 0
v -15 -17 0
v -14 -17 0
v -15 -18 0
v -16 -18 0
v -16 -17 0
v -15 -17 0
v -16 -18 0
v -17 -18 0
v -17 -17 0
v -16 -17 0
v -17 -18 0
v -18 -18 0
v -18 -17 0
v -17 -17 0
v -18 -18 0
v -19 -18 0
v -19 -17 0
v -18 -17 0
v -24 -18 0
v -25 -18 0
v -25 -17 0
v -24 -17 0
v 0 -19 0
v -1 -19 0
v -1 -18 0
v 0 -18 0
v -12 -19 0
v -13 -19 0
v -13 -18 0
v -12 -18 0
v -13 -19 0
v -14 -19 0
v -14 -18 0
v -13 -18 0
v -14 -19 0
v -15 -19 0
v -15 -18 0
v -14 -18 0
v -15 -19 0
v -16 -19 0
v -16 -18 0
v -15 -18 0
v -16 -19 0
v -17 -19 0
v -17 -18 0
v -16 -18 0
v -17 -19 0
v -18 -19 0
v -18 -18 0
v -17 -18 0
v -18 -19 0
v -19 -19 0
v -19 -18 0
v -18 -18 0
v -24 -19 0
v -25 -19 0
v -25 -18 0
v -24 -18 0
v 0 -20 0
v -1 -20 0
v -1 -19 0
v 0 -19 0
v -24 -20 0
v -25 -20 0
v -25 -19 0
v -24 -19 0
v 0 -21 0
v -1 -21 0
v -1 -20 0
v 0 -20 0
v -24 -21 0
v -25 -21 0
v -25 -20 0
v -24 -20 0
v 0 -22 0
v -1 -22 0
v -1 -21 0
v 0 -21 0
v -24 -22 0
v -25 -22 0
v -25 -21 0
v -24 -21 0
v 0 -23 0
v -1 -23 0
v -1 -22 0
v 0 -22 0
v -24 -23 0
v -25 -23 0
v -25 -22 0
v -24 -22 0
v 0 -24 0
v -1 -24 0
v -1 -23 0
v 0 -23 0
v -24 -24 0
v -25 -24 0
v -25 -23 0
v -24 -23 0
v 0 -25 0
v -1 -25 0
v -1 -24 0
v 0 -24 0
v -1 -25 0
v -2 -25 0
v -2 -24 0
v -1 -24 0
v -2 -25 0
v -3 -25 0
v -3 -24 0
v -2 -24 0
v -3 -25 0
v -4 -25 0
v -4 -24 0
v -3 -24 0
v -4 -25 0
v -5 -25 0
v -5 -24 0
v -4 -24 0
v -5 -25 0
v -6 -25 0
v -6 -24 0
v -5 -24 0
v -9 -25 0
v -10 -25 0
v -10 -24 0
v -9 -24 0
v -10 -25 0
v -11 -25 0
v -11 -24 0
v -10 -24 0
v -11 -25 0
v -12 -25 0
v -12 -24 0
v -11 -24 0
v -12 -25 0
v -13 -25 0
v -13 -24 0
v -12 -24 0
v -13 -25 0
v -14 -25 0
v -14 -24 0
v -13 -24 0
v -14 -25 0
v -15 -25 0
v -15 -24 0
v -14 -24 0
v -15 -25 0
v -16 -25 0
v -16 -24 0
v -15 -24 0
v -16 -25 0
v -17 -25 0
v -17 -24 0
v -16 -24 0
v -17 -25 0
v -18 -25 0
v -18 -24 0
v -17 -24 0
v -18 -25 0
v -19 -25 0
v -19 -24 0
v -18 -24 0
v -19 -25 0
v -20 -25 0
v -20 -24 0
v -19 -24 0
v -20 -25 0
v -21 -25 0
v -21 -24 0
v -20 -24 0
v -21 -25 0
v -22 -25 0
v -22 -24 0
v -21 -24 0
v -22 -25 0
v -23 -25 0
v -23 -24 0
v -22 -24 0
v -23 -25 0
v -24 -25 0
v -24 -24 0
v -23 -24 0
v -24 -25 0
v -25 -25 0
v -25 -24 0
v -24 -24 0

# Texture cooridinates (Count = 103)
vt 0.025 0.6111111
vt 0.05 0.6111111
vt 0.05 0.6388889
vt 0.025 0.6388889
vt 0.075 0.6111111
vt 0.075 0.6388889
vt 0.05 0.5555556
vt 0.075 0.5555556
vt 0.075 0.5833334
vt 0.05 0.5833334
vt 0.025 0.5277778
vt 0.05 0.5277778
vt 0.025 0.5555556
vt 0 0.5277778
vt 0 0.5555556
vt 0.1 0.6111111
vt 0.1 0.6388889
vt 0.025 0.5833334
vt 0.15 0.9722222
vt 0.175 0.9722222
vt 0.175 1
vt 0.15 1
vt 0.2 0.9722222
vt 0.2 1
vt 0.225 0.9722222
vt 0.225 1
vt 0.25 0.9722222
vt 0.25 1
vt 0.275 0.9722222
vt 0.275 1
vt 0.775 0.8888889
vt 0.8 0.8888889
vt 0.8 0.9166667
vt 0.775 0.9166667
vt 0.825 0.8888889
vt 0.825 0.9166667
vt 0.15 0.9444444
vt 0.175 0.9444444
vt 0.2 0.9444444
vt 0.225 0.9444444
vt 0.25 0.9444444
vt 0.275 0.9444444
vt 0.775 0.8611111
vt 0.8 0.8611111
vt 0.825 0.8611111
vt 0.325 0.8333333
vt 0.35 0.8333333
vt 0.35 0.8611111
vt 0.325 0.8611111
vt 0.375 0.8333333
vt 0.375 0.8611111
vt 0.15 0.9166667
vt 0.175 0.9166667
vt 0.2 0.9166667
vt 0.225 0.9166667
vt 0.25 0.9166667
vt 0.275 0.9166667
vt 0.325 0.8055556
vt 0.35 0.8055556
vt 0.375 0.8055556
vt 0.15 0.8888889
vt 0.175 0.8888889
vt 0.2 0.8888889
vt 0.225 0.8888889
vt 0.25 0.8888889
vt 0.275 0.8888889
vt 0.325 0.7777778
vt 0.35 0.7777778
vt 0.375 0.7777778
vt 0.15 0.8611111
vt 0.175 0.8611111
vt 0.2 0.8611111
vt 0.225 0.8611111
vt 0.25 0.8611111
vt 0.275 0.8611111
vt 0.225 0.6666666
vt 0.25 0.6666666
vt 0.25 0.6944444
vt 0.225 0.6944444
vt 0.275 0.6666666
vt 0.275 0.6944444
vt 0 0.5833334
vt 0.225 0.6388889
vt 0.25 0.6388889
vt 0.275 0.6388889
vt 0 0.6111111
vt 0.875 0.75
vt 0.9 0.75
vt 0.9 0.7777778
vt 0.875 0.7777778
vt 0.925 0.75
vt 0.925 0.7777778
vt 0.825 0.9722222
vt 0.85 0.9722222
vt 0.85 1
vt 0.825 1
vt 0.1 0.5833334
vt 0.875 0.7222222
vt 0.9 0.7222222
vt 0.925 0.7222222
vt 0.825 0.9444444
vt 0.85 0.9444444
vt 0.1 0.5555556

# Normal
vn 0 0 -1

# Mesh description
g overworld_mesh_0002

# Faces
f 1/1/1 2/2/1 3/3/1 4/4/1
f 5/2/1 6/5/1 7/6/1 8/3/1
f 9/2/1 10/5/1 11/6/1 12/3/1
f 13/7/1 14/8/1 15/9/1 16/10/1
f 17/7/1 18/8/1 19/9/1 20/10/1
f 21/7/1 22/8/1 23/9/1 24/10/1
f 25/7/1 26/8/1 27/9/1 28/10/1
f 29/7/1 30/8/1 31/9/1 32/10/1
f 33/7/1 34/8/1 35/9/1 36/10/1
f 37/11/1 38/12/1 39/7/1 40/13/1
f 41/14/1 42/11/1 43/13/1 44/15/1
f 45/2/1 46/5/1 47/6/1 48/3/1
f 49/2/1 50/5/1 51/6/1 52/3/1
f 53/2/1 54/5/1 55/6/1 56/3/1
f 57/2/1 58/5/1 59/6/1 60/3/1
f 61/2/1 62/5/1 63/6/1 64/3/1
f 65/2/1 66/5/1 67/6/1 68/3/1
f 69/2/1 70/5/1 71/6/1 72/3/1
f 73/2/1 74/5/1 75/6/1 76/3/1
f 77/2/1 78/5/1 79/6/1 80/3/1
f 81/2/1 82/5/1 83/6/1 84/3/1
f 85/2/1 86/5/1 87/6/1 88/3/1
f 89/5/1 90/16/1 91/17/1 92/6/1
f 93/18/1 94/10/1 95/2/1 96/1/1
f 97/18/1 98/10/1 99/2/1 100/1/1
f 101/18/1 102/10/1 103/2/1 104/1/1
f 105/18/1 106/10/1 107/2/1 108/1/1
f 109/18/1 110/10/1 111/2/1 112/1/1
f 113/18/1 114/10/1 115/2/1 116/1/1
f 117/18/1 118/10/1 119/2/1 120/1/1
f 121/19/1 122/20/1 123/21/1 124/22/1
f 125/20/1 126/23/1 127/24/1 128/21/1
f 129/23/1 130/25/1 131/26/1 132/24/1
f 133/25/1 134/27/1 135/28/1 136/26/1
f 137/27/1 138/29/1 139/30/1 140/28/1
f 141/18/1 142/10/1 143/2/1 144/1/1
f 145/18/1 146/10/1 147/2/1 148/1/1
f 149/31/1 150/32/1 151/33/1 152/34/1
f 153/32/1 154/35/1 155/36/1 156/33/1
f 157/37/1 158/38/1 159/20/1 160/19/1
f 161/38/1 162/39/1 163/23/1 164/20/1
f 165/39/1 166/40/1 167/25/1 168/23/1
f 169/40/1 170/41/1 171/27/1 172/25/1
f 173/41/1 174/42/1 175/29/1 176/27/1
f 177/18/1 178/10/1 179/2/1 180/1/1
f 181/18/1 182/10/1 183/2/1 184/1/1
f 185/43/1 186/44/1 187/32/1 188/31/1
f 189/44/1 190/45/1 191/35/1 192/32/1
f 193/46/1 194/47/1 195/48/1 196/49/1
f 197/47/1 198/50/1 199/51/1 200/48/1
f 201/52/1 202/53/1 203/38/1 204/37/1
f 205/53/1 206/54/1 207/39/1 208/38/1
f 209/54/1 210/55/1 211/40/1 212/39/1
f 213/55/1 214/56/1 215/41/1 216/40/1
f 217/56/1 218/57/1 219/42/1 220/41/1
f 221/18/1 222/10/1 223/2/1 224/1/1
f 225/18/1 226/10/1 227/2/1 228/1/1
f 229/58/1 230/59/1 231/47/1 232/46/1
f 233/59/1 234/60/1 235/50/1 236/47/1
f 237/61/1 238/62/1 239/53/1 240/52/1
f 241/62/1 242/63/1 243/54/1 244/53/1
f 245/63/1 246/64/1 247/55/1 248/54/1
f 249/64/1 250/65/1 251/56/1 252/55/1
f 253/65/1 254/66/1 255/57/1 256/56/1
f 257/18/1 258/10/1 259/2/1 260/1/1
f 261/18/1 262/10/1 263/2/1 264/1/1
f 265/31/1 266/32/1 267/33/1 268/34/1
f 269/32/1 270/35/1 271/36/1 272/33/1
f 273/67/1 274/68/1 275/59/1 276/58/1
f 277/68/1 278/69/1 279/60/1 280/59/1
f 281/70/1 282/71/1 283/62/1 284/61/1
f 285/71/1 286/72/1 287/63/1 288/62/1
f 289/72/1 290/73/1 291/64/1 292/63/1
f 293/73/1 294/74/1 295/65/1 296/64/1
f 297/74/1 298/75/1 299/66/1 300/65/1
f 301/18/1 302/10/1 303/2/1 304/1/1
f 305/18/1 306/10/1 307/2/1 308/1/1
f 309/43/1 310/44/1 311/32/1 312/31/1
f 313/44/1 314/45/1 315/35/1 316/32/1
f 317/18/1 318/10/1 319/2/1 320/1/1
f 321/18/1 322/10/1 323/2/1 324/1/1
f 325/18/1 326/10/1 327/2/1 328/1/1
f 329/18/1 330/10/1 331/2/1 332/1/1
f 333/76/1 334/77/1 335/78/1 336/79/1
f 337/77/1 338/80/1 339/81/1 340/78/1
f 341/18/1 342/10/1 343/2/1 344/1/1
f 345/15/1 346/13/1 347/18/1 348/82/1
f 349/83/1 350/84/1 351/77/1 352/76/1
f 353/84/1 354/85/1 355/80/1 356/77/1
f 357/18/1 358/10/1 359/2/1 360/1/1
f 361/15/1 362/13/1 363/18/1 364/82/1
f 365/82/1 366/18/1 367/1/1 368/86/1
f 369/76/1 370/77/1 371/78/1 372/79/1
f 373/77/1 374/80/1 375/81/1 376/78/1
f 377/31/1 378/32/1 379/33/1 380/34/1
f 381/32/1 382/35/1 383/36/1 384/33/1
f 385/82/1 386/18/1 387/1/1 388/86/1
f 389/83/1 390/84/1 391/77/1 392/76/1
f 393/84/1 394/85/1 395/80/1 396/77/1
f 397/43/1 398/44/1 399/32/1 400/31/1
f 401/44/1 402/45/1 403/35/1 404/32/1
f 405/82/1 406/18/1 407/1/1 408/86/1
f 409/82/1 410/18/1 411/1/1 412/86/1
f 413/87/1 414/88/1 415/89/1 416/90/1
f 417/88/1 418/91/1 419/92/1 420/89/1
f 421/93/1 422/94/1 423/95/1 424/96/1
f 425/93/1 426/94/1 427/95/1 428/96/1
f 429/93/1 430/94/1 431/95/1 432/96/1
f 433/93/1 434/94/1 435/95/1 436/96/1
f 437/93/1 438/94/1 439/95/1 440/96/1
f 441/9/1 442/97/1 443/16/1 444/5/1
f 445/82/1 446/18/1 447/1/1 448/86/1
f 449/98/1 450/99/1 451/88/1 452/87/1
f 453/99/1 454/100/1 455/91/1 456/88/1
f 457/101/1 458/102/1 459/94/1 460/93/1
f 461/101/1 462/102/1 463/94/1 464/93/1
f 465/101/1 466/102/1 467/94/1 468/93/1
f 469/101/1 470/102/1 471/94/1 472/93/1
f 473/101/1 474/102/1 475/94/1 476/93/1
f 477/9/1 478/97/1 479/16/1 480/5/1
f 481/82/1 482/18/1 483/1/1 484/86/1
f 485/9/1 486/97/1 487/16/1 488/5/1
f 489/82/1 490/18/1 491/1/1 492/86/1
f 493/9/1 494/97/1 495/16/1 496/5/1
f 497/82/1 498/18/1 499/1/1 500/86/1
f 501/9/1 502/97/1 503/16/1 504/5/1
f 505/82/1 506/18/1 507/1/1 508/86/1
f 509/9/1 510/97/1 511/16/1 512/5/1
f 513/82/1 514/18/1 515/1/1 516/86/1
f 517/9/1 518/97/1 519/16/1 520/5/1
f 521/13/1 522/7/1 523/10/1 524/18/1
f 525/7/1 526/8/1 527/9/1 528/10/1
f 529/7/1 530/8/1 531/9/1 532/10/1
f 533/7/1 534/8/1 535/9/1 536/10/1
f 537/7/1 538/8/1 539/9/1 540/10/1
f 541/11/1 542/12/1 543/7/1 544/13/1
f 545/14/1 546/11/1 547/13/1 548/15/1
f 549/7/1 550/8/1 551/9/1 552/10/1
f 553/7/1 554/8/1 555/9/1 556/10/1
f 557/7/1 558/8/1 559/9/1 560/10/1
f 561/7/1 562/8/1 563/9/1 564/10/1
f 565/7/1 566/8/1 567/9/1 568/10/1
f 569/7/1 570/8/1 571/9/1 572/10/1
f 573/7/1 574/8/1 575/9/1 576/10/1
f 577/7/1 578/8/1 579/9/1 580/10/1
f 581/7/1 582/8/1 583/9/1 584/10/1
f 585/7/1 586/8/1 587/9/1 588/10/1
f 589/7/1 590/8/1 591/9/1 592/10/1
f 593/7/1 594/8/1 595/9/1 596/10/1
f 597/7/1 598/8/1 599/9/1 600/10/1
f 601/7/1 602/8/1 603/9/1 604/10/1
f 605/8/1 606/103/1 607/97/1 608/9/1

